# xmcd CD database file
#
# Track frame offsets:
#	150
#	18760
#	32567
#	45583
#	61208
#	74274
#	91249
#	110504
#	126564
#	158032
#	178160
#	196134
#	206914
#	224482
#	238142
#
# Disc length: 3460 seconds
#
# Revision: 0
# Processed by: cddbd v1.5.1PL0 Copyright (c) Steve Scherf et al.
# Submitted via: CDex 1.51
#
DISCID=d70d820f
DTITLE=The Redliners - Retropolitan
DYEAR=1999
DGENRE=Blues
TTITLE0=Let Her Go
TTITLE1=Kitchen Lovin'
TTITLE2=Make Some Time
TTITLE3=Jungle
TTITLE4=Thirteen
TTITLE5=Skin So White
TTITLE6=Goin' Down
TTITLE7=Flippin' the Bean
TTITLE8=Walks My Soul
TTITLE9=Cruel Mood
TTITLE10=Pick One Up
TTITLE11=Fireball
TTITLE12=Led Astray
TTITLE13=Burn The House
TTITLE14=Tie One On
EXTD=YEAR: 1999
EXTT0=
EXTT1=
EXTT2=
EXTT3=
EXTT4=
EXTT5=
EXTT6=
EXTT7=
EXTT8=
EXTT9=
EXTT10=
EXTT11=
EXTT12=
EXTT13=
EXTT14=
PLAYORDER=
